<?xml version="1.0" standalone="no"?><!DOCTYPE svg PUBLIC "-//W3C//DTD SVG 1.1//EN" "http://www.w3.org/Graphics/SVG/1.1/DTD/svg11.dtd"><svg t="1516278595892" class="icon" style="" viewBox="0 0 1024 1024" version="1.1" xmlns="http://www.w3.org/2000/svg" p-id="1487" xmlns:xlink="http://www.w3.org/1999/xlink" width="32" height="32"><defs><style type="text/css"></style></defs><path d="M534.945 994.998479l-0.007163-460.222753 458.260408 0.004093c12.568762-0.014326 22.779729-10.222829 22.792009-22.791076-0.0307-12.58462-10.223248-22.776749-22.792009-22.792099l-458.261431 0.010233-0.00614-460.20638c0.014327-12.630668-10.225294-22.870894-22.855457-22.854521-12.599462-0.01535-22.839084 10.223852-22.839084 22.838148l-0.002047 460.223776-459.276593 0.00921c-12.583089-0.001023-22.777683 10.193153-22.775636 22.773679-0.001023 12.58769 10.205851 22.795169 22.778706 22.778796l459.275569 0.004093-0.00307 460.2248c-0.002047 12.617365 10.237575 22.856567 22.854434 22.856567C524.705379 1017.855046 534.930673 1007.630171 534.945 994.998479z" p-id="1488"></path></svg>