<?xml version="1.0" standalone="no"?><!DOCTYPE svg PUBLIC "-//W3C//DTD SVG 1.1//EN" "http://www.w3.org/Graphics/SVG/1.1/DTD/svg11.dtd"><svg t="1520840163561" class="icon" style="" viewBox="0 0 1024 1024" version="1.1" xmlns="http://www.w3.org/2000/svg" p-id="1096" xmlns:xlink="http://www.w3.org/1999/xlink" width="36" height="36"><defs><style type="text/css"></style></defs><path d="M911.515152 147.393939H748.606061v-46.545454c0-31.030303-15.515152-54.30303-38.787879-77.575758-15.515152-15.515152-46.545455-23.272727-77.575758-23.272727H391.757576c-31.030303 0-62.060606 7.757576-77.575758 23.272727-31.030303 23.272727-38.787879 46.545455-46.545454 85.333334V155.151515H112.484848v77.575758h38.787879v605.090909c0 100.848485 85.333333 186.181818 186.181818 186.181818h349.09091c100.848485 0 186.181818-85.333333 186.181818-186.181818V224.969697h38.787879v-77.575758zM345.212121 108.606061c0-7.757576 7.757576-15.515152 7.757576-23.272728s23.272727-7.757576 31.030303-7.757575h248.242424c15.515152 0 23.272727 0 31.030303 7.757575 7.757576 7.757576 7.757576 15.515152 7.757576 23.272728V155.151515H345.212121v-46.545454z m449.939394 729.212121c0 62.060606-46.545455 108.606061-108.60606 108.60606H337.454545c-62.060606 0-108.606061-54.30303-108.60606-108.60606V224.969697h566.30303v612.848485z" p-id="1097" fill="#000000"></path><path d="M345.212121 364.606061h77.575758v449.939394H345.212121zM593.454545 364.606061h77.575758v449.939394h-77.575758z" p-id="1098" fill="#000000"></path></svg>