<?xml version="1.0" standalone="no"?><!DOCTYPE svg PUBLIC "-//W3C//DTD SVG 1.1//EN" "http://www.w3.org/Graphics/SVG/1.1/DTD/svg11.dtd"><svg t="1520664919651" class="icon" style="" viewBox="0 0 1024 1024" version="1.1" xmlns="http://www.w3.org/2000/svg" p-id="7845" xmlns:xlink="http://www.w3.org/1999/xlink" width="36" height="36"><defs><style type="text/css"></style></defs><path d="M601.6 537.6c12.8-12.8 12.8-32 0-44.8L198.4 83.2c-12.8-12.8-32-12.8-44.8 0-19.2 12.8-19.2 32-6.4 44.8l384 384-384 384c-12.8 12.8-12.8 32 0 44.8 12.8 12.8 32 12.8 44.8 0l409.6-403.2zM422.4 128l384 384-384 384c-12.8 12.8-12.8 32 0 44.8 12.8 12.8 32 12.8 44.8 0l409.6-409.6c12.8-12.8 12.8-32 0-44.8L467.2 83.2c-12.8-12.8-32-12.8-44.8 0-12.8 12.8-12.8 32 0 44.8z" p-id="7846" fill="#ffffff"></path></svg>