<?xml version="1.0" standalone="no"?><!DOCTYPE svg PUBLIC "-//W3C//DTD SVG 1.1//EN" "http://www.w3.org/Graphics/SVG/1.1/DTD/svg11.dtd"><svg t="1520237822404" class="icon" style="" viewBox="0 0 1025 1024" version="1.1" xmlns="http://www.w3.org/2000/svg" p-id="743" xmlns:xlink="http://www.w3.org/1999/xlink" width="36" height="36"><defs><style type="text/css"></style></defs><path d="M892.91136 550.27328c0 26.44224-7.0528 53.5552-21.13792 81.35168-14.09536 27.79648-34.848 54.4256-62.26944 79.88224-27.42144 25.47072-59.51232 48.3136-96.26112 68.52224-36.75904 20.20864-79.79264 36.34944-129.10976 48.40064-49.32736 12.0448-100.83072 18.07744-154.53184 18.07744s-106.07104-6.5152-157.10208-19.5392c-51.04128-13.02272-96.832-31.09376-137.39264-54.22464s-73.2224-52.48256-97.97504-88.06144C12.3712 649.11872 0 610.33728 0 568.35072c0-44.70016 13.22752-92.33024 39.70432-142.86848 26.46528-50.53184 64.07168-100.68096 112.82816-150.44992 64.35712-65.69344 129.3952-111.57376 195.09248-137.62048 65.69728-26.03904 112.63104-24.68608 140.82048 4.08192 24.75136 24.88064 28.56448 65.51296 11.42528 121.8752-1.52704 5.45024-1.71392 9.32992-0.57088 11.66336 1.14304 2.33216 3.04384 3.70048 5.71264 4.08192 2.65856 0.38912 5.4272 0.29568 8.28416-0.29568 2.85696-0.576 5.4272-1.25312 7.712-2.03776l3.42784-1.16608c52.93184-22.93632 99.776-34.40512 140.53504-34.40512 40.74752 0 69.88288 11.86432 87.40608 35.5712 17.13792 24.49152 17.13792 59.09888 0 103.79776-0.76928 5.05344-1.6256 8.94848-2.57024 11.66336-0.95616 2.72128-0.09856 5.15456 2.57024 7.29344 2.65856 2.1376 4.94464 3.59296 6.85568 4.36992 1.9008 0.78464 5.14176 1.95072 9.71136 3.49824 21.7088 6.99776 41.31968 16.13312 58.8416 27.40736 17.51168 11.28064 32.75008 27.11168 45.7024 47.52896C886.42944 502.74432 892.91136 525.40032 892.91136 550.27328zM716.95744 547.94112c-3.42784-37.32096-20.37888-70.35776-50.84416-99.13344-30.47552-28.768-70.17984-49.94816-119.11168-63.56224-48.94336-13.6064-101.216-17.68832-156.81664-12.24576-84.9344 8.94848-155.29984 36.44288-211.08864 82.51776-55.79904 46.0608-81.03424 97.47712-75.69408 154.23616 3.42784 37.32096 20.36864 70.36544 50.84416 99.13344 30.46528 28.77568 70.16832 49.95584 119.11168 63.56224 48.93312 13.61408 101.20448 17.696 156.81664 12.24576 84.92288-8.9408 155.2896-36.44288 211.08864-82.51776C697.05088 656.11648 722.28608 604.70656 716.95744 547.94112zM538.71744 641.24288c-17.13792 39.65312-47.22944 68.81024-90.26176 87.47008-43.04384 18.65984-85.69216 20.99328-127.96672 6.99776-40.75776-13.21088-68.83968-37.80352-84.26368-73.76384-15.424-35.96032-14.19392-72.4032 3.71328-109.34144 17.89696-36.15488 46.74688-63.17312 86.54848-81.056 39.79264-17.8752 79.88096-21.57568 120.25472-11.07968 42.27456 11.28064 72.4544 34.50624 90.54848 69.68832C555.3728 565.34144 555.85536 602.3744 538.71744 641.24288zM385.61408 649.40672c7.99744-13.21088 10.08512-26.62272 6.28352-40.2368-3.81184-13.6064-12.38144-23.32544-25.70752-29.15712-12.95232-5.44256-26.85056-5.62944-41.70368-0.58368-14.85312 5.05344-26.2784 13.99552-34.27712 26.82368-8.38272 13.21728-10.8544 26.53696-7.42656 39.94112 3.42784 13.41952 11.61216 23.23968 24.56448 29.45152 12.94208 6.21952 27.136 6.70208 42.56 1.46176C365.33376 671.85408 377.23264 662.62528 385.61408 649.40672zM439.3152 578.848c3.04384-5.04704 3.71328-10.2016 1.99936-15.45728-1.71392-5.2416-5.05344-8.83328-9.9968-10.784-5.33888-1.94432-10.76608-1.8432-16.2816 0.288-5.52576 2.14528-9.62304 5.74464-12.28288 10.79168-6.48192 12.0512-3.99872 20.79872 7.42656 26.24128 5.32864 1.95072 10.8544 1.8496 16.56704-0.288S436.64512 583.90144 439.3152 578.848zM954.03904 91.34464c33.13408 37.32096 54.55744 80.57344 64.2688 129.75104s7.14112 96.12416-7.712 140.82432c-3.42784 10.496-9.90976 18.2784-19.424 23.32544-9.52448 5.05344-19.424 5.83168-29.70624 2.33216s-17.9072-10.10816-22.85184-19.8272c-4.95488-9.71136-5.90976-19.8272-2.85696-30.3232 10.65728-31.87072 12.56832-65.31072 5.71264-100.29952-6.85568-34.9888-22.0928-65.69344-45.7024-92.13568C872.14848 118.1696 843.968 99.6096 811.21792 89.30816c-32.76032-10.30272-65.69728-11.95776-98.83136-4.96-10.66752 2.33216-20.56576 0.48896-29.70624-5.536-9.14048-6.02624-14.85312-14.48448-17.13792-25.3696-2.2848-10.87744-0.48256-20.89216 5.4272-30.0352 5.89952-9.12896 14.18368-14.86592 24.8512-17.19936 46.84544-10.10816 93.3056-7.86816 139.392 6.70208C881.28896 27.49568 920.90368 53.64224 954.03904 91.34464zM792.93696 148.19712c22.46656 7.19872 41.70368 19.92704 57.69984 38.19904 15.99616 18.2784 26.36672 39.36512 31.13472 63.26656 4.75648 23.91552 3.51616 46.752-3.71328 68.52224-3.05408 8.94848-8.66816 15.55072-16.85248 19.8272-8.19584 4.28416-16.6656 5.05344-25.42208 2.33216-8.76672-3.1104-15.23712-8.84096-19.424-17.20576-4.19712-8.35072-4.95488-16.99712-2.2848-25.9456 7.61344-24.49152 3.04384-46.0672-13.71008-64.72832-16.76416-18.65984-37.1328-25.45664-61.1264-20.4096-9.14048 1.95072-17.71008 0.38912-25.70752-4.6656-7.99744-5.04704-12.76544-12.24576-14.28224-21.57568-1.91104-9.32992-0.384-17.97632 4.5696-25.95328 4.94464-7.96288 11.99744-12.9152 21.13792-14.86592C747.80672 139.94752 770.46016 141.01248 792.93696 148.19712z" p-id="744" fill="#ffffff"></path></svg>
