<?xml version="1.0" standalone="no"?><!DOCTYPE svg PUBLIC "-//W3C//DTD SVG 1.1//EN" "http://www.w3.org/Graphics/SVG/1.1/DTD/svg11.dtd"><svg t="1516239000268" class="icon" style="" viewBox="0 0 1024 1024" version="1.1" xmlns="http://www.w3.org/2000/svg" p-id="3581" xmlns:xlink="http://www.w3.org/1999/xlink" width="200" height="200"><defs><style type="text/css"></style></defs><path d="M1009.759366 1016.32187C999.52186 1026.559377 982.9056 1026.559377 972.641844 1016.32187L674.809162 718.489189C604.091619 777.866725 513.004063 813.750497 413.437752 813.750497 188.737615 813.750497 6.562504 631.575385 6.562504 406.875248 6.562504 182.148861 188.737615 0 413.437752 0 638.137889 0 820.313001 182.148861 820.313001 406.875248 820.313001 513.109063 779.257976 609.525372 712.556685 682.001666L1009.759366 979.204348C1020.023123 989.441854 1020.023123 1006.084364 1009.759366 1016.32187ZM767.812969 406.875248C767.812969 211.155129 609.157872 52.500032 413.437752 52.500032 217.717633 52.500032 59.062536 211.155129 59.062536 406.875248 59.062536 602.595368 217.717633 761.250465 413.437752 761.250465 609.157872 761.250465 767.812969 602.595368 767.812969 406.875248Z" p-id="3582" fill="#707070"></path></svg>