<?xml version="1.0" standalone="no"?><!DOCTYPE svg PUBLIC "-//W3C//DTD SVG 1.1//EN" "http://www.w3.org/Graphics/SVG/1.1/DTD/svg11.dtd"><svg t="1516196245579" class="icon" style="" viewBox="0 0 1024 1024" version="1.1" xmlns="http://www.w3.org/2000/svg" p-id="7662" xmlns:xlink="http://www.w3.org/1999/xlink" width="200" height="200"><defs><style type="text/css"></style></defs><path d="M896 21.333333H128C91.733333 21.333333 64 49.066667 64 85.333333v853.333334c0 36.266667 27.733333 64 64 64h768c36.266667 0 64-27.733333 64-64V85.333333c0-36.266667-27.733333-64-64-64z m21.333333 917.333334c0 12.8-8.533333 21.333333-21.333333 21.333333H128c-12.8 0-21.333333-8.533333-21.333333-21.333333V85.333333c0-12.8 8.533333-21.333333 21.333333-21.333333h768c12.8 0 21.333333 8.533333 21.333333 21.333333v853.333334z" fill="#ffffff" p-id="7663"></path><path d="M258.133333 275.2m-44.8 0a44.8 44.8 0 1 0 89.6 0 44.8 44.8 0 1 0-89.6 0Z" fill="#ffffff" p-id="7664"></path><path d="M258.133333 490.666667m-44.8 0a44.8 44.8 0 1 0 89.6 0 44.8 44.8 0 1 0-89.6 0Z" fill="#ffffff" p-id="7665"></path><path d="M258.133333 706.133333m-44.8 0a44.8 44.8 0 1 0 89.6 0 44.8 44.8 0 1 0-89.6 0Z" fill="#ffffff" p-id="7666"></path><path d="M789.333333 251.733333H384c-12.8 0-21.333333 10.666667-21.333333 21.333334s10.666667 21.333333 21.333333 21.333333h405.333333c12.8 0 21.333333-10.666667 21.333334-21.333333s-10.666667-21.333333-21.333334-21.333334zM789.333333 469.333333H384c-12.8 0-21.333333 10.666667-21.333333 21.333334s10.666667 21.333333 21.333333 21.333333h405.333333c12.8 0 21.333333-10.666667 21.333334-21.333333s-10.666667-21.333333-21.333334-21.333334zM789.333333 684.8H384c-12.8 0-21.333333 10.666667-21.333333 21.333333s10.666667 21.333333 21.333333 21.333334h405.333333c12.8 0 21.333333-10.666667 21.333334-21.333334s-10.666667-21.333333-21.333334-21.333333z" fill="#ffffff" p-id="7667"></path></svg>