<?xml version="1.0" standalone="no"?><!DOCTYPE svg PUBLIC "-//W3C//DTD SVG 1.1//EN" "http://www.w3.org/Graphics/SVG/1.1/DTD/svg11.dtd"><svg t="1516196291381" class="icon" style="" viewBox="0 0 1024 1024" version="1.1" xmlns="http://www.w3.org/2000/svg" p-id="8208" xmlns:xlink="http://www.w3.org/1999/xlink" width="200" height="200"><defs><style type="text/css"></style></defs><path d="M848.33792 495.234048c-26.446848 25.880576-44.061696 42.002432-44.061696 42.002432-27.543552 27.956224-29.98784 40.905728-29.98784 81.120256l0 98.438144c0 40.195072-31.311872 73.105408-69.595136 73.105408L234.457088 789.900288c-38.276096 0-69.595136-32.910336-69.595136-73.105408L164.861952 394.770432c0-40.211456 31.31904-73.119744 69.595136-73.119744l313.347072 0c46.75072 0 65.470464-2.386944 75.984896-13.438976l45.748224-51.818496c0 0 10.047488-9.793536 9.808896-13.571072-1.431552-7.651328-10.632192-8.086528-57.444352-8.086528L131.70688 234.735616c-38.27712 0-69.595136 32.899072-69.595136 73.110528l0 482.446336c0 40.208384 31.318016 73.1136 69.595136 73.1136l667.270144 0c38.28736 0 69.602304-32.90624 69.602304-73.1136L868.579328 554.202112c0-40.210432-0.823296-49.368064-2.75968-55.609344C863.87712 492.376064 855.902208 489.312256 848.33792 495.234048zM922.272768 338.020352c62.584832-78.357504 41.539584-98.572288 2.48832-139.61216-30.394368-31.930368-55.176192-59.843584-132.056064 3.488768L922.272768 338.020352zM754.282496 236.982272c-6.602752 6.519808-13.469696 13.53216-20.714496 21.115904-1.370112 1.453056-203.024384 213.318656-203.024384 213.318656-28.606464 28.198912-76.158976 186.658816-59.74016 203.916288 16.422912 17.243136 165.736448-29.17888 193.396736-62.066688 0 0 202.129408-212.32128 203.736064-214.019072 7.209984-7.579648 13.930496-14.774272 20.204544-21.641216L754.282496 236.982272z" p-id="8209" fill="#ffffff"></path></svg>