<?xml version="1.0" standalone="no"?><!DOCTYPE svg PUBLIC "-//W3C//DTD SVG 1.1//EN" "http://www.w3.org/Graphics/SVG/1.1/DTD/svg11.dtd"><svg t="1516173907016" class="icon" style="" viewBox="0 0 1024 1024" version="1.1" xmlns="http://www.w3.org/2000/svg" p-id="926" xmlns:xlink="http://www.w3.org/1999/xlink" width="32" height="32"><defs><style type="text/css"></style></defs><path d="M770.99008 637.242027c14.86848 14.199467 31.3344 29.463893 47.26784 45.335893 57.869653 57.603413 115.602773 115.397973 173.267627 173.19936 41.53344 41.601707 43.39712 100.27008 4.601173 139.4688-39.130453 39.601493-98.399573 37.730987-140.663467-4.46464-69.864107-69.864107-139.933013-139.598507-209.46944-209.865387-8.669867-8.731307-14.199467-9.332053-25.197226-3.331413-248.66816 136.997547-548.870827 1.467733-611.068587-275.531093-50.333013-224.13312 99.997013-449.733973 329.40032-494.26432 236.264107-45.800107 464.800427 123.467093 490.134187 362.530133 9.530027 90.002773-8.198827 173.93664-52.736 252.463787-1.467733 2.60096-2.935467 5.133653-4.1984 7.80288-0.47104 1.051307-0.47104 2.2528-1.338027 6.656z m-355.59424 66.6624c161.000107-1.201493 289.532587-129.80224 288.802133-289.068374-0.730453-159.136427-131.66592-287.798613-291.403093-286.53568-157.934933 1.338027-285.074773 131.938987-284.207787 291.874134 0.805547 154.862933 132.266667 284.931413 286.808747 283.72992z" fill="#ffffff" p-id="927"></path><path d="M193.1264 415.17056c0.197973-132.068693 113.937067-226.269867 222.405973-221.463893 0.26624 5.065387 0.79872 10.267307 0.79872 15.40096 0.136533 15.264427 0.068267 30.53568 0.068267 45.602133-103.99744 8.997547-156.071253 79.598933-161.000107 160.467627l-62.272853-0.006827z" fill="#ffffff" p-id="928"></path></svg>