<?xml version="1.0" standalone="no"?><!DOCTYPE svg PUBLIC "-//W3C//DTD SVG 1.1//EN" "http://www.w3.org/Graphics/SVG/1.1/DTD/svg11.dtd"><svg t="1520427489402" class="icon" style="" viewBox="0 0 1041 1024" version="1.1" xmlns="http://www.w3.org/2000/svg" p-id="2588" xmlns:xlink="http://www.w3.org/1999/xlink" width="32.53125" height="32"><defs><style type="text/css"></style></defs><path d="M131.025149 487.951281c-83.482343-87.174432-83.482343-208.206996 0-295.327192 83.48746-87.174432 172.140569-54.406121 255.632121 32.830733l95.863325 98.366332 95.814206-98.423637c83.483366-87.23276 172.086333-120.058376 255.568676-32.82664 77.80811 81.3334 82.122369 191.620225 14.882965 276.869818l79.341023 0c55.880705-97.630574 49.580209-228.64549-30.275537-309.695434-127.951137-129.771599-258.348999-97.28879-351.433024 0l-63.899332 65.652256-63.889099-65.652256c-93.137237-97.28879-223.824695-131.705648-351.438141 0-93.714382 96.720855-87.231737 262.441201 5.904477 359.78832l409.368528 427.934372 28.910447-30.212092 0-97.904821-28.856211 29.579689L131.025149 487.951281 131.025149 487.951281 131.025149 487.951281zM131.025149 487.951281" p-id="2589" fill="#d81e06"></path><path d="M1024.608867 627.641787 964.04756 545.148981 664.726403 764.899894 554.919509 616.69548l-82.229816 60.917418L643.615597 908.320351l82.234933-60.922535-0.201591-0.26913L1024.608867 627.641787zM1024.608867 627.641787" p-id="2590" fill="#d81e06"></path></svg>