<?xml version="1.0" standalone="no"?><!DOCTYPE svg PUBLIC "-//W3C//DTD SVG 1.1//EN" "http://www.w3.org/Graphics/SVG/1.1/DTD/svg11.dtd"><svg t="1520507733277" class="icon" style="" viewBox="0 0 1026 1024" version="1.1" xmlns="http://www.w3.org/2000/svg" p-id="5795" xmlns:xlink="http://www.w3.org/1999/xlink" width="36.0703125" height="36"><defs><style type="text/css"></style></defs><path d="M554.813321 725.071091c0.853892 0.087472 3.844597-1.528675 8.330655-4.248634a242.301278 242.301278 0 0 1-46.943243 4.906756c12.783391 0.074976 25.55012-0.120795 38.612588-0.658122zM486.806015 725.071091c7.726683 0.316565 15.349233 0.487343 22.955121 0.595642a242.492884 242.492884 0 0 1-26.25406-1.916051c1.678627 0.895545 2.815762 1.370393 3.298939 1.320409z" fill="#F7B970" p-id="5796"></path><path d="M514.318005 0.470682C231.654701 0.470682 2.482535 229.526218 2.482535 512.306152c0 174.102368 86.963712 327.836283 219.800178 420.264905 25.80004-89.854449 90.845797-157.591009 179.392334-188.764322-22.892641-35.163697-31.106667-55.069798-30.073666-64.854152a242.213807 242.213807 0 0 1-51.558426-51.612576c-251.031805-28.657455-36.234186-533.041153 194.512474-411.74681 52.3665-27.536982 103.633354-23.00927 148.789671 0.795578 18.61485-21.380627 41.998999-37.417139 47.797135-21.576398l17.240292 47.226486 16.573839 45.102168c0.608138 0.770586 1.207945 1.541171 1.807752 2.315923l48.446927 9.017934 49.354968 9.09291c25.454318 4.756804-16.240613 62.85063-43.9692 78.578908 41.665773 110.231233 26.678924 229.830287-92.241182 241.518197a242.217972 242.217972 0 0 1-42.57798 44.519022c9.371987 4.715151 4.715151 25.287705-28.453353 75.450746 83.298224 32.652004 144.341101 98.497504 169.187281 184.823922 132.744829-92.441118 219.63773-246.125049 219.63773-420.156607C1026.145144 229.526218 796.972978 0.470682 514.318005 0.470682z" fill="#F7B970" p-id="5797"></path><path d="M483.507076 723.750682a242.338766 242.338766 0 0 0 26.25406 1.916051c2.149309 0.029157 4.298618 0.054149 6.443762 0.066645a242.009706 242.009706 0 0 0 46.943244-4.906756c23.042593-13.97884 85.701618-57.164958 102.629509-48.638531a242.088847 242.088847 0 0 0 42.57798-44.519023 189.522411 189.522411 0 0 1-16.927892 0.937199c34.83047-50.533756 52.420649-112.755421 42.032322-194.108437l-216.538726 1.062158h-2.594999v-0.012496l-215.834787-1.049662c-10.392493 81.34885 7.201852 143.574681 42.032322 194.108437a202.843129 202.843129 0 0 1-20.476751-1.26626 242.50538 242.50538 0 0 0 51.558427 51.612576c3.165649-29.977864 92.815997 34.6347 111.901529 44.798099z" fill="#FCE9EA" p-id="5798"></path><path d="M637.320132 747.638837c-0.233258 0.354053-0.441525 0.687279-0.683113 1.045497l-115.829434-0.116629-115.946062 0.116629c-1.112142-1.670296-2.140978-3.265617-3.190641-4.877599-88.546537 31.173313-153.592294 98.909872-179.392334 188.764322 82.827542 57.63564 183.474355 91.44977 292.035292 91.44977 108.627581 0 209.336875-33.859949 292.189408-91.558069-24.842014-86.322252-85.884892-152.171917-169.183116-184.823921z" fill="#A4CC2D" p-id="5799"></path><path d="M520.807585 748.567705l115.829434 0.116629c0.241589-0.358218 0.449855-0.691444 0.683113-1.045497 33.168505-50.163042 37.825341-70.735595 28.453354-75.450746-16.923727-8.526426-79.582751 34.655527-102.62951 48.638531-4.486058 2.715794-7.476763 4.336106-8.330655 4.248635a818.54521 818.54521 0 0 1-45.05635 0.591476 823.697721 823.697721 0 0 1-22.955121-0.595642c-0.479013 0.049984-1.620312-0.429029-3.29894-1.320409-19.085532-10.159234-108.73588-74.775963-111.905694-44.798099-1.033001 9.78852 7.181025 29.690456 30.073666 64.854152 1.045497 1.611982 2.078499 3.207302 3.190641 4.877599l115.946062-0.116629z" fill="#CFE07D" p-id="5800"></path><path d="M663.099346 216.667852l0.241589-0.270747c-45.156318-23.809013-96.419006-28.336724-148.789672-0.795577 52.083258-27.38703 103.312623-22.780177 148.548083 1.066324zM746.59334 289.431962l0.162447 0.029157a201.826789 201.826789 0 0 0-1.807752-2.315922l0.133291 0.362383 1.512014 1.924382zM697.825683 628.431323z" fill="#FF9182" p-id="5801"></path><path d="M298.483219 434.49783l215.834786 1.049662V215.476568l0.237424 0.116629C283.808769 94.298854 69.006984 598.682552 320.03879 627.340007a202.768153 202.768153 0 0 0 20.476751 1.26626c-34.83047-50.533756-52.424815-112.755421-42.032322-194.108437z" fill="#FF9182" p-id="5802"></path><path d="M514.318005 435.547492v0.012496h2.594999l216.538727-1.062158c10.388327 81.34885-7.201852 143.574681-42.032322 194.108437a189.522411 189.522411 0 0 0 16.927891-0.937199c118.920106-11.68791 133.90279-131.286964 92.241183-241.518197-9.438633 5.356611-17.265283 5.818963-20.260154-2.424221l-17.356921-47.226485-17.240291-47.226486-49.471598-9.209539-49.471597-9.20954c-17.402739-3.265617-3.240625-31.627333 16.311424-54.186748-45.235459-23.842336-96.464825-28.453354-148.548083-1.070489l-0.237423-0.11663v220.066759zM745.085491 287.50758l0.645626 1.761934 0.862223 0.162448-1.507849-1.924382z" fill="#FF7866" p-id="5803"></path><path d="M745.731117 289.273679l17.240291 47.226486 17.356921 47.226485c2.999036 8.243184 10.825687 7.780832 20.260154 2.424221 27.724421-15.728277 69.423517-73.822103 43.969199-78.578907l-49.354968-9.092911-48.446927-9.017934-0.162447-0.029157-0.862223-0.158283z" fill="#CFE07D" p-id="5804"></path><path d="M646.787922 270.8546l49.471597 9.20954 49.471598 9.209539-0.645626-1.761934-0.133291-0.362383-16.573839-45.102169-17.240291-47.226485c-5.798136-15.840741-29.182286 0.19577-47.797135 21.576397l-0.241589 0.270747c-19.552048 22.559415-33.709997 50.921131-16.311424 54.186748z" fill="#CFE07D" p-id="5805"></path></svg>