<?xml version="1.0" standalone="no"?><!DOCTYPE svg PUBLIC "-//W3C//DTD SVG 1.1//EN" "http://www.w3.org/Graphics/SVG/1.1/DTD/svg11.dtd"><svg t="1520495314560" class="icon" style="" viewBox="0 0 1024 1024" version="1.1" xmlns="http://www.w3.org/2000/svg" p-id="1897" xmlns:xlink="http://www.w3.org/1999/xlink" width="16" height="16"><defs><style type="text/css"></style></defs><path d="M963.636546 458.967309h0.230688s-3.229637 3.76791-5.126408 5.767209l-181.833692 204.723104 40.652415 275.41627h-0.230688a58.030939 58.030939 0 0 1-14.917847 50.930864 54.160501 54.160501 0 0 1-43.830789 20.121151l-263.087259-125.930212-256.140976 134.055569c0.153792-0.922753 0-1.871139 0.153792-2.819524a53.032691 53.032691 0 0 1-48.905932-15.533017 57.620826 57.620826 0 0 1-15.379224-46.778473l11.329361-99.836796h0.615169a19.070238 19.070238 0 0 1 3.434694-9.586383 19.429086 19.429086 0 0 1 27.221226-3.870438 19.147134 19.147134 0 0 1 7.305132 17.942428v0.768962c0 0.589537 0 1.153442-0.205057 1.717346l-3.691013 30.194543a49.136621 49.136621 0 0 0 13.07234 39.832191 45.163655 45.163655 0 0 0 41.652065 13.226132v2.409412l218.154293-114.165106 222.665532 92.711089c-0.487009 0.179424 7.997196 3.306533 30.015119-17.147835 11.354994-11.790738 17.045307-13.610613 14.174518-28.810413a0.410113 0.410113 0 0 1 0.179424 0l-43.574468-234.558799 160.687259-174.297872c-18.250013 19.198398 25.273191-17.199099 17.942428-46.291464a43.856421 43.856421 0 0 0-28.938573-34.398198l-81.868736-7.125707a19.09587 19.09587 0 0 1-16.788986-3.921702 42.984931 42.984931 0 0 1 0.538273-42.702979 19.172766 19.172766 0 0 1 24.350438-3.76791l146.307684 24.863079a78.741627 78.741627 0 0 1 32.834644 48.367659 62.157697 62.157697 0 0 1-8.996846 48.49582z m-264.72771-91.121902l-70.026733-4.331815s-64.387685-136.798198-64.0801-132.210063a25.016871 25.016871 0 0 1 28.041451-31.29672 19.22403 19.22403 0 0 1 18.198749 13.379924l56.749336 105.091365 34.782679 5.895369a19.070238 19.070238 0 0 1 18.916445 3.357797 29.65627 29.65627 0 0 1-0.717697 34.885207 19.22403 19.22403 0 0 1-21.86413 5.126408z m-147.51239-190.830538a19.249662 19.249662 0 0 1-18.173117-13.200501l-7.971564-14.815319c-1.614819-3.537222-5.254568-9.714543-5.254569-9.714543l-0.38448 0.435744a45.240551 45.240551 0 0 0-74.486708 2.563204c-0.179424-0.25632-0.435745-0.435745-0.615169-0.692065l-108.449162 218.666934s-235.994193 49.87995-235.660976 50.495119a47.316746 47.316746 0 0 0-26.349737 31.527409 49.264781 49.264781 0 0 0 15.379224 49.726158l158.764856 166.60826-14.405207 127.134919a18.993342 18.993342 0 0 1-3.383429 8.125356 19.429086 19.429086 0 0 1-27.195594 3.896071 19.172766 19.172766 0 0 1-7.40766-16.58393h-0.538273l11.483154-101.195295-186.421827-195.674993a57.877146 57.877146 0 0 1-18.198749-58.41542 55.724055 55.724055 0 0 1 30.963505-37.012665c-0.410113-0.717697 273.77582-69.488461 273.775819-69.488461l130.262028-246.554593c0.205056 0.307584 0.512641 0.512641 0.717697 0.820225a53.827284 53.827284 0 0 1 44.881702-24.478598 60.18403 60.18403 0 0 1 47.162954 18.173116c0-0.179424 0.307584-0.333217 0.435745-0.538273s4.254919 7.253867 6.151689 11.43189l34.449462 63.849412a19.121502 19.121502 0 0 1 4.588135 12.149587 26.964906 26.964906 0 0 1-24.119749 22.761252z" fill="#48BCF5" p-id="1898"></path><path d="M1012.747534 430.541377l0.281953 0.153792s-3.409061 3.947334-5.382729 6.049161l-191.138122 214.97592 42.728611 289.23194h-0.230689a60.876095 60.876095 0 0 1-15.686808 53.494068 56.928761 56.928761 0 0 1-46.137672 21.120801l-276.569713-132.286959-269.13642 140.796796c0.153792-0.974018 0-1.973667 0.153792-2.973317a55.698423 55.698423 0 0 1-51.26408-16.327609 60.491615 60.491615 0 0 1-16.122553-49.085357l11.893266-104.835044h0.666434a19.864831 19.864831 0 0 1 3.614117-10.047759 20.505632 20.505632 0 0 1 28.605357-4.075495 20.121151 20.121151 0 0 1 7.689612 18.916446v0.794593c0 0.589537 0 1.204706-0.205056 1.794243l-3.562854 31.527409a51.469136 51.469136 0 0 0 13.713141 41.805858 47.521802 47.521802 0 0 0 43.779525 13.918197v2.563204l229.278598-119.881051 235.532816 112.780976a48.700876 48.700876 0 0 0 39.217021-17.942428 51.853617 51.853617 0 0 0 13.379925-45.573767h0.179425l-36.371865-246.323905 162.763454-183.06403c1.691715-1.794243 4.588135-5.126408 4.588135-5.126408h-0.230688a55.518999 55.518999 0 0 0 8.227885-43.318148 46.137672 46.137672 0 0 0-30.3996-36.141176l-89.122603-15.122904a20.044255 20.044255 0 0 1-17.634844-4.126758 20.505632 20.505632 0 0 1-2.153091-28.810413 20.146783 20.146783 0 0 1 25.63204-3.972966l153.79224 26.093416a54.237397 54.237397 0 0 1 35.705432 42.446659 65.131014 65.131014 0 0 1-10.073392 50.572015z m-281.260375-98.734619l-62.875394-10.662928-68.027435-126.186533a19.839199 19.839199 0 0 1-3.819174-11.226834 20.505632 20.505632 0 0 1 20.505632-20.505632 20.198048 20.198048 0 0 1 19.121502 14.046358l59.620126 110.448461 36.576921 6.202953a20.22368 20.22368 0 0 1 19.890463 3.51159 20.505632 20.505632 0 0 1 2.153091 28.810413 20.172416 20.172416 0 0 1-23.145732 5.562152zM579.514793 134.56821a20.249312 20.249312 0 0 1-19.095869-13.892565l-8.407309-15.533017c-1.691715-3.742278-5.510889-10.252816-5.510889-10.252816s-0.281952 0.307584-0.384481 0.487009a47.598698 47.598698 0 0 0-78.305882 2.563204c-0.179424-0.25632-0.461377-0.461377-0.640801-0.717697l-113.985682 229.611815s-248.01562 52.39189-247.656771 53.032691a49.75179 49.75179 0 0 0-27.708235 33.116595 51.674193 51.674193 0 0 0 16.276345 52.212466l166.864581 175.015569-15.148536 133.517297h-0.12816a19.992991 19.992991 0 0 1-3.537222 8.509837 20.505632 20.505632 0 0 1-28.605356 4.101127 20.069887 20.069887 0 0 1-7.689612-17.404156h-0.589537l12.072691-106.270438-195.931315-205.492065a60.747935 60.747935 0 0 1-19.095869-61.337472 58.517947 58.517947 0 0 1 32.527058-38.883804c-0.435745-0.743329 290.795494-62.260225 290.795495-62.260226L459.47995 25.093767c0.205056 0.307584 0.512641 0.538273 0.743329 0.845858a55.877847 55.877847 0 0 1 91.942128-3.024581c0-0.205056 0.333217-0.358849 0.461376-0.563905s4.485607 7.689612 6.484907 11.995795l36.166808 67.053416a20.018623 20.018623 0 0 1 4.844456 12.81602 20.505632 20.505632 0 0 1-20.608161 20.35184z" fill="#4076FE" p-id="1899"></path></svg>